:SAMPLES-PER-SECOND 30
:FULLY-SPECIFIED
:DEGREES
391
root  41.0549 33.4798 -68.1311 7.29241 -24.5161 -1.15288
RightUpLeg  -5.70028 -14.0002 -1.13665
RightLeg  8.9135 -10.2813 -0.932129
RightFoot  3.15879 0.025633 -0.551962
RightToes  -28.5113 -0.133805 -0.241487
Spine  3.73139 -0.764434 -1.1794
Spine1  7.02121 -1.23472 -2.85785
HEad  17.1568 3.02247 12.0657
LeftShoulder1  0 -2.42657e-020 -4.95415e-022
LeftArm  -47.3359 12.072 -76.8841
LeftForeArm  62.9528 -10.7059 -1.85847
LeftHand  0.129883 -7.78298 -2.28118
RightShoulder  0 2.42657e-020 1.07489e-018
RightArm  -43.8342 -10.4359 76.4141
RightForeArm  30.9722 39.0293 8.22092
RightHand  -1.14393 18.7353 -6.5582
LeftUpLeg  -6.90248 7.47327 2.93006
LeftLeg  16.2618 -4.13604 -0.92402
LeftFoot  -3.99897 0.00926487 0.26537
LeftToes  -19.4905 8.72033e-007 1.17809e-007
392
root  41.1266 33.538 -68.2029 7.12471 -25.7568 -0.889297
RightUpLeg  -6.0289 -12.3413 -1.36458
RightLeg  8.91504 -10.9321 -0.990658
RightFoot  3.69046 0.0345815 -0.695699
RightToes  -28.69 -0.133839 -0.241518
Spine  3.70939 -0.61702 -1.08273
Spine1  6.9674 -0.87117 -2.82804
HEad  18.19 0.540344 12.2084
LeftShoulder1  0 -2.42657e-020 -4.95415e-022
LeftArm  -48.7269 12.5934 -76.9956
LeftForeArm  62.7922 -10.6409 -1.84703
LeftHand  0.147271 -7.95121 -2.49092
RightShoulder  0 2.42657e-020 1.07489e-018
RightArm  -44.5597 -8.34979 73.3625
RightForeArm  29.101 43.6068 9.68114
RightHand  -1.40985 17.5815 -8.73127
LeftUpLeg  -6.65958 9.13788 2.72627
LeftLeg  16.0468 -5.10652 -1.11972
LeftFoot  -3.38732 0.00536047 0.274865
LeftToes  -19.7494 8.72033e-007 1.17809e-007
393
root  41.2322 33.604 -68.2934 6.80575 -26.7399 -0.267432
RightUpLeg  -6.88976 -10.6443 -2.03349
RightLeg  9.96464 -11.4709 -1.24957
RightFoot  3.81822 0.0390196 -0.757924
RightToes  -29.2378 -0.134907 -0.242644
Spine  3.79722 -0.596009 -1.15676
Spine1  7.1088 -0.751796 -3.12737
HEad  18.9175 -1.78495 12.5424
LeftShoulder1  0 -2.42657e-020 -4.95415e-022
LeftArm  -48.0014 12.8273 -76.9229
LeftForeArm  61.8196 -10.8938 -1.89523
LeftHand  0.162481 -7.92131 -2.71875
RightShoulder  0 2.42657e-020 1.07489e-018
RightArm  -44.9999 -5.59642 70.5913
RightForeArm  29.0569 46.9686 10.9079
RightHand  -1.60766 16.9325 -10.4035
LeftUpLeg  -6.7176 9.41606 2.25585
LeftLeg  16.2211 -5.87687 -1.30648
LeftFoot  -2.47487 0.00437617 0.224887
LeftToes  -20.7576 8.72033e-007 1.17809e-007
394
root  41.3281 33.661 -68.3768 6.62424 -27.0854 0.222777
RightUpLeg  -7.52288 -9.81669 -2.48465
RightLeg  10.5966 -12.0112 -1.44073
RightFoot  3.98093 0.0443818 -0.830709
RightToes  -29.2139 -0.136689 -0.244516
Spine  3.89216 -0.697209 -1.17825
Spine1  7.27262 -0.91559 -3.26226
HEad  19.3141 -3.71933 12.8454
LeftShoulder1  0 -2.42657e-020 -4.95415e-022
LeftArm  -46.7376 12.4896 -77.0999
LeftForeArm  62.0364 -10.9791 -1.91027
LeftHand  0.16288 -8.02697 -2.6934
RightShoulder  0 2.42657e-020 1.07489e-018
RightArm  -46.3109 -2.74502 68.3917
RightForeArm  30.9858 48.9848 11.7224
RightHand  -1.74662 17.221 -11.1309
LeftUpLeg  -6.94441 7.40586 2.13456
LeftLeg  16.6099 -7.37549 -1.68979
LeftFoot  -1.91943 0.00364602 0.217641
LeftToes  -20.8436 8.72033e-007 1.17809e-007
395
root  41.4239 33.6678 -68.4487 6.47687 -26.9919 0.54051
RightUpLeg  -7.83444 -9.65883 -2.80468
RightLeg  10.8831 -12.3287 -1.54026
RightFoot  4.03167 0.0474695 -0.865146
RightToes  -29.3881 -0.138864 -0.246787
Spine  3.96294 -0.836824 -1.07952
Spine1  7.39174 -1.19246 -3.11362
HEad  19.9022 -4.94402 12.9187
LeftShoulder1  0 -2.42657e-020 -4.95415e-022
LeftArm  -45.723 11.6266 -77.8151
LeftForeArm  63.1102 -10.806 -1.87631
LeftHand  0.152111 -8.16756 -2.50234
RightShoulder  0 2.42657e-020 1.07489e-018
RightArm  -45.6425 -1.04221 65.667
RightForeArm  31.7922 50.6949 12.4695
RightHand  -1.78897 17.2259 -11.4045
LeftUpLeg  -7.23426 2.59403 2.49995
LeftLeg  17.37 -9.61835 -2.33234
LeftFoot  -1.91499 0.0049001 0.29318
LeftToes  -21.3008 8.72033e-007 1.17809e-007
396
root  41.5189 33.6234 -68.5172 6.56148 -27.2397 0.44121
RightUpLeg  -8.3283 -9.67808 -2.77942
RightLeg  11.3342 -12.0918 -1.60722
RightFoot  3.87565 0.0452633 -0.815115
RightToes  -29.5903 -0.14111 -0.249109
Spine  3.97143 -0.887905 -0.792158
Spine1  7.38504 -1.31434 -2.57876
HEad  20.7252 -4.79198 12.9033
LeftShoulder1  0 -2.42657e-020 -4.95415e-022
LeftArm  -45.0535 10.7313 -79.2627
LeftForeArm  63.5298 -10.7728 -1.86928
LeftHand  0.13812 -8.18547 -2.30201
RightShoulder  0 2.42657e-020 1.07489e-018
RightArm  -45.1744 0.407691 63.4937
RightForeArm  33.1781 50.9536 12.5868
RightHand  -1.76241 18.0817 -10.6766
LeftUpLeg  -7.72156 -2.35992 3.47846
LeftLeg  18.6766 -13.2581 -3.51732
LeftFoot  -2.50937 0.0123303 0.562964
LeftToes  -22.8043 8.72033e-007 1.17809e-007
397
root  41.6103 33.544 -68.5678 6.81604 -28.1527 -0.183731
RightUpLeg  -8.87924 -9.67396 -2.33009
RightLeg  11.8181 -11.2419 -1.59205
RightFoot  3.76395 0.0413557 -0.737228
RightToes  -30.0113 -0.143999 -0.252045
Spine  4.02369 -0.754664 -0.343723
Spine1  7.45733 -1.06238 -1.76496
HEad  21.1562 -3.49647 12.6969
LeftShoulder1  0 -2.42657e-020 -4.95415e-022
LeftArm  -44.4249 9.89 -81.3213
LeftForeArm  62.751 -11.2021 -1.94929
LeftHand  0.141282 -8.15968 -2.3525
RightShoulder  0 2.42657e-020 1.07489e-018
RightArm  -42.9898 1.00774 61.41
RightForeArm  33.366 50.3543 12.3152
RightHand  -1.68855 18.7754 -9.82037
LeftUpLeg  -8.04212 -6.60335 4.75926
LeftLeg  20.058 -16.6896 -4.82627
LeftFoot  -3.68101 0.0349445 1.08742
LeftToes  -24.4108 8.72033e-007 1.17809e-007
